<?xml version="1.0" encoding="UTF-8" standalone="no"?>
<!-- Created with Inkscape (http://www.inkscape.org/) -->

<svg
   xmlns:dc="http://purl.org/dc/elements/1.1/"
   xmlns:cc="http://creativecommons.org/ns#"
   xmlns:rdf="http://www.w3.org/1999/02/22-rdf-syntax-ns#"
   xmlns:svg="http://www.w3.org/2000/svg"
   xmlns="http://www.w3.org/2000/svg"
   xmlns:xlink="http://www.w3.org/1999/xlink"
   xmlns:sodipodi="http://sodipodi.sourceforge.net/DTD/sodipodi-0.dtd"
   xmlns:inkscape="http://www.inkscape.org/namespaces/inkscape"
   width="64"
   height="64"
   id="svg2"
   version="1.1"
   inkscape:version="0.48.4 r9939"
   sodipodi:docname="logo.svg"
   inkscape:export-filename="/home/binnette/carteticketrestaurant/logo256px.png"
   inkscape:export-xdpi="360"
   inkscape:export-ydpi="360">
  <defs
     id="defs4">
    <linearGradient
       inkscape:collect="always"
       id="linearGradient3867">
      <stop
         style="stop-color:#ffffff;stop-opacity:1;"
         offset="0"
         id="stop3869" />
      <stop
         style="stop-color:#ffffff;stop-opacity:0;"
         offset="1"
         id="stop3871" />
    </linearGradient>
    <linearGradient
       id="linearGradient3840">
      <stop
         style="stop-color:#ffffff;stop-opacity:1;"
         offset="0"
         id="stop3842" />
      <stop
         style="stop-color:#ffffff;stop-opacity:0;"
         offset="1"
         id="stop3844" />
    </linearGradient>
    <linearGradient
       inkscape:collect="always"
       xlink:href="#linearGradient3840"
       id="linearGradient3935"
       gradientUnits="userSpaceOnUse"
       x1="55.918781"
       y1="4.0406113"
       x2="23.918779"
       y2="36.040611"
       gradientTransform="matrix(0.8660254,-0.5,0.5,0.8660254,-11.775186,9.85427)" />
    <mask
       maskUnits="userSpaceOnUse"
       id="mask3931">
      <path
         style="fill:url(#linearGradient3935);fill-opacity:1;stroke:none"
         d="M 55.258135,21.959388 C 65.19926,39.177922 59.299755,61.195177 42.08122,71.136302 24.862686,81.077428 2.8454315,75.177922 -7.095694,57.959388 -17.036819,40.740853 -11.137314,18.723599 6.0812204,8.7824732 23.299755,-1.1586523 45.317009,4.7408532 55.258135,21.959388 z"
         id="path3933"
         inkscape:connector-curvature="0" />
    </mask>
    <linearGradient
       inkscape:collect="always"
       xlink:href="#linearGradient3840"
       id="linearGradient3943"
       gradientUnits="userSpaceOnUse"
       x1="55.918781"
       y1="4.0406113"
       x2="23.918779"
       y2="36.040611"
       gradientTransform="matrix(0.8660254,0.5,-0.5,0.8660254,32.224814,-6.14573)" />
    <mask
       maskUnits="userSpaceOnUse"
       id="mask3939">
      <path
         style="fill:url(#linearGradient3943);fill-opacity:1;stroke:none"
         d="M 55.258135,57.959388 C 45.317009,75.177922 23.299755,81.077428 6.0812204,71.136302 -11.137314,61.195177 -17.036819,39.177922 -7.095694,21.959388 2.8454315,4.7408532 24.862686,-1.1586523 42.08122,8.7824732 59.299755,18.723599 65.19926,40.740853 55.258135,57.959388 z"
         id="path3941"
         inkscape:connector-curvature="0" />
    </mask>
    <linearGradient
       inkscape:collect="always"
       xlink:href="#linearGradient3867"
       id="linearGradient3873"
       x1="6"
       y1="32"
       x2="9"
       y2="33"
       gradientUnits="userSpaceOnUse" />
    <linearGradient
       inkscape:collect="always"
       xlink:href="#linearGradient3867"
       id="linearGradient3877"
       gradientUnits="userSpaceOnUse"
       x1="8"
       y1="30"
       x2="9"
       y2="33" />
    <filter
       inkscape:collect="always"
       id="filter3917">
      <feGaussianBlur
         inkscape:collect="always"
         stdDeviation="0.25"
         id="feGaussianBlur3919" />
    </filter>
    <mask
       maskUnits="userSpaceOnUse"
       id="mask3956">
      <path
         transform="matrix(1.0695662,-0.1215663,0.1215663,1.0695662,-5.2810401,-1.1102489)"
         d="m 13,34 a 3,3 0 1 1 -6,0 3,3 0 1 1 6,0 z"
         sodipodi:ry="3"
         sodipodi:rx="3"
         sodipodi:cy="34"
         sodipodi:cx="10"
         id="path3958"
         style="fill:#37c837;stroke:none"
         sodipodi:type="arc" />
    </mask>
  </defs>
  <sodipodi:namedview
     id="base"
     pagecolor="#ffffff"
     bordercolor="#666666"
     borderopacity="1.0"
     inkscape:pageopacity="0.0"
     inkscape:pageshadow="2"
     inkscape:zoom="1"
     inkscape:cx="131.36155"
     inkscape:cy="28.164888"
     inkscape:document-units="px"
     inkscape:current-layer="layer1"
     showgrid="false"
     inkscape:snap-global="true"
     showguides="true"
     inkscape:guide-bbox="true"
     inkscape:window-width="1920"
     inkscape:window-height="1025"
     inkscape:window-x="0"
     inkscape:window-y="0"
     inkscape:window-maximized="1">
    <inkscape:grid
       type="xygrid"
       id="grid2985"
       empspacing="4"
       visible="true"
       enabled="true"
       snapvisiblegridlinesonly="true" />
  </sodipodi:namedview>
  <metadata
     id="metadata7">
    <rdf:RDF>
      <cc:Work
         rdf:about="">
        <dc:format>image/svg+xml</dc:format>
        <dc:type
           rdf:resource="http://purl.org/dc/dcmitype/StillImage" />
        <dc:title></dc:title>
      </cc:Work>
    </rdf:RDF>
  </metadata>
  <g
     inkscape:label="Calque 1"
     inkscape:groupmode="layer"
     id="layer1"
     transform="translate(0,-988.36218)">
    <path
       style="fill:#ff2a2a;fill-rule:evenodd;stroke:none;stroke-width:1px;stroke-linecap:butt;stroke-linejoin:miter;stroke-opacity:1"
       d="M 11,1 C 5.46,1 1,5.46 1,11 l 0,52 52,0 c 5.54,0 10,-4.46 10,-10 L 63,11 C 63,5.46 58.54,1 53,1 z"
       id="rect2987"
       inkscape:connector-curvature="0"
       sodipodi:nodetypes="scccssss"
       transform="translate(0,988.36218)" />
    <path
       transform="translate(0,988.36218)"
       sodipodi:nodetypes="scccssss"
       inkscape:connector-curvature="0"
       id="path3903"
       d="M 11,1 C 5.46,1 1,5.46 1,11 l 0,52 52,0 c 5.54,0 10,-4.46 10,-10 L 63,11 C 63,5.46 58.54,1 53,1 z"
       style="fill:#ffffff;fill-rule:evenodd;stroke:none;stroke-width:1px;stroke-linecap:butt;stroke-linejoin:miter;stroke-opacity:1"
       mask="url(#mask3931)" />
    <path
       transform="translate(0,988.36218)"
       sodipodi:nodetypes="scccssss"
       inkscape:connector-curvature="0"
       id="path3937"
       d="M 11,1 C 5.46,1 1,5.46 1,11 l 0,52 52,0 c 5.54,0 10,-4.46 10,-10 L 63,11 C 63,5.46 58.54,1 53,1 z"
       style="fill:#ffffff;fill-rule:evenodd;stroke:none;stroke-width:1px;stroke-linecap:butt;stroke-linejoin:miter;stroke-opacity:1"
       mask="url(#mask3939)" />
    <g
       id="g3873"
       transform="translate(0.24632035,4.065864)">
      <rect
         ry="1.4597255"
         rx="1.6022913"
         y="1025.2963"
         x="5.7536798"
         height="2.9999487"
         width="14"
         id="rect3019"
         style="fill:#f4d7e3;stroke:none" />
      <rect
         ry="1.6022913"
         rx="1.4107143"
         y="1025.2963"
         x="5.7536798"
         height="15.000051"
         width="3"
         id="rect3023"
         style="fill:#f4d7e3;stroke:none" />
      <rect
         ry="1.266234"
         rx="1.6022913"
         y="1031.2963"
         x="5.7536798"
         height="3.0000513"
         width="13"
         id="rect3025"
         style="fill:#f4d7e3;stroke:none" />
      <rect
         ry="1.3929007"
         rx="1.5000013"
         y="1037.2963"
         x="5.7536798"
         height="2.9999487"
         width="14"
         id="rect3027"
         style="fill:#f4d7e3;stroke:none" />
    </g>
    <g
       id="g3862"
       style="fill:#3737c8"
       transform="translate(0.05882035,4.065864)">
      <rect
         ry="1.6022913"
         rx="1.4210818"
         y="1000.2963"
         x="23.941179"
         height="39.99995"
         width="5.9999995"
         id="rect3029"
         style="fill:#3737c8;stroke:none" />
      <rect
         ry="1.9999974"
         rx="1.9999974"
         y="1000.2963"
         x="9.9411793"
         height="5.9999905"
         width="34"
         id="rect3031"
         style="fill:#3737c8;stroke:none" />
    </g>
    <rect
       style="fill:#3737c8;stroke:none"
       id="rect3033"
       width="3.9999986"
       height="28"
       x="34"
       y="1016.3622"
       rx="1.9669094"
       ry="1.9999974" />
    <rect
       style="fill:#3737c8;stroke:none"
       id="rect3035"
       width="12.999998"
       height="4.0000005"
       x="34"
       y="1016.3622"
       rx="1.9999974"
       ry="1.9107143" />
    <rect
       style="fill:#3737c8;stroke:none"
       id="rect3037"
       width="12.878679"
       height="3.9341359"
       x="34.121319"
       y="1028.4281"
       rx="1.9999974"
       ry="1.953125" />
    <rect
       style="fill:#3737c8;stroke:none"
       id="rect3039"
       width="3.9655156"
       height="16.907934"
       x="-479.01279"
       y="913.32574"
       rx="1.9661173"
       ry="2"
       transform="matrix(0.8660254,-0.5,0.5,0.8660254,0,0)" />
    <path
       inkscape:connector-curvature="0"
       style="fill:#3737c8;stroke:none"
       d="m 44.96507,1016.3656 0,4 c 2.209139,0 4,1.7908 4,4 0,2.2091 -1.790861,4 -4,4 l 0,4 c 4.418278,0 8,-3.5817 8,-8 0,-4.4183 -3.581722,-8 -8,-8 z"
       id="path3043" />
    <path
       transform="translate(0,988.36218)"
       sodipodi:nodetypes="scccssss"
       inkscape:connector-curvature="0"
       id="path3945"
       d="M 11,1 C 5.46,1 1,5.46 1,11 l 0,52 52,0 c 5.54,0 10,-4.46 10,-10 L 63,11 C 63,5.46 58.54,1 53,1 z"
       style="fill:none;fill-rule:evenodd;stroke:#d7d7f4;stroke-width:1px;stroke-linecap:butt;stroke-linejoin:miter;stroke-opacity:1" />
    <g
       id="g3960"
       transform="translate(3.0620249,-1.9003495)">
      <path
         transform="translate(0,988.36218)"
         d="m 13,34 c 0,1.656854 -1.343146,3 -3,3 -1.6568542,0 -3,-1.343146 -3,-3 0,-1.656854 1.3431458,-3 3,-3 1.656854,0 3,1.343146 3,3 z"
         sodipodi:ry="3"
         sodipodi:rx="3"
         sodipodi:cy="34"
         sodipodi:cx="10"
         id="path3093"
         style="fill:#37c837;stroke:none"
         sodipodi:type="arc" />
      <path
         mask="url(#mask3956)"
         transform="matrix(0.92303431,0.10491157,-0.10491157,0.92303431,4.7581033,989.94102)"
         inkscape:connector-curvature="0"
         id="path3883"
         d="M 11.3125,28.9375 C 9.3372679,28.841106 7.3591838,29.697132 6.125,31.34375 4.1199017,34.018903 4.6685965,37.869902 7.34375,39.875 l 1.3125,-1.75 C 6.9121212,36.817729 6.5677293,34.400379 7.875,32.65625 c 1.0676677,-1.424456 2.941115,-1.974155 4.59375,-1.3125 l 0.78125,-2 C 12.613205,29.088801 11.970911,28.969631 11.3125,28.9375 z"
         style="font-size:medium;font-style:normal;font-variant:normal;font-weight:normal;font-stretch:normal;text-indent:0;text-align:start;text-decoration:none;line-height:normal;letter-spacing:normal;word-spacing:normal;text-transform:none;direction:ltr;block-progression:tb;writing-mode:lr-tb;text-anchor:start;baseline-shift:baseline;color:#000000;fill:#ffffff;fill-opacity:1;stroke:none;stroke-width:2.15290523;marker:none;visibility:visible;display:inline;overflow:visible;filter:url(#filter3917);enable-background:accumulate;font-family:Sans;-inkscape-font-specification:Sans" />
    </g>
  </g>
</svg>
